<svg width="90" height="90" viewBox="0 0 90 90" fill="none" xmlns="http://www.w3.org/2000/svg">
<g clip-path="url(#clip0)">
<path d="M45 15C28.4314 15 15 28.4314 15 45C15 61.5686 28.4314 75 45 75C61.5686 75 75 61.5686 75 45C74.9811 28.4392 61.5607 15.0189 45 15ZM45 72C30.0883 72 18 59.9117 18 45C18 30.0883 30.0883 18 45 18C59.9117 18 72 30.0883 72 45C71.9826 59.9046 59.9046 71.9825 45 72Z" fill="white"/>
<path d="M87.7246 9.285C86.3487 8.71162 84.7626 9.027 83.7106 10.083C80.0421 13.7327 77.986 18.6979 78.0001 23.8725V43.5C78.0079 45.4001 79.2085 47.0906 81.0001 47.724V76.5C81.0001 78.9853 83.0148 81 85.5001 81C87.9854 81 90.0001 78.9853 90.0001 76.5V12.6885C90.0031 11.1971 89.1038 9.85219 87.7246 9.285ZM87.0001 76.5C87.0001 77.3284 86.3284 78 85.5001 78C84.6717 78 84.0001 77.3284 84.0001 76.5V48H87.0001V76.5ZM87.0001 45H82.5001C81.6717 45 81.0001 44.3284 81.0001 43.5V23.8725C80.9888 19.4942 82.729 15.2932 85.8331 12.2055C85.954 12.0761 86.1226 12.0019 86.2996 12C86.3956 12.0011 86.4903 12.021 86.5786 12.0585C86.8398 12.1571 87.0091 12.411 87.0001 12.69V45Z" fill="white"/>
<path d="M33 34.5C29.6863 34.5 27 37.1863 27 40.5C27 43.8137 29.6863 46.5 33 46.5C36.3137 46.5 39 43.8137 39 40.5C39 37.1863 36.3137 34.5 33 34.5ZM33 43.5C31.3431 43.5 30 42.1569 30 40.5C30 38.8431 31.3431 37.5 33 37.5C34.6569 37.5 36 38.8431 36 40.5C36 42.1569 34.6569 43.5 33 43.5Z" fill="white"/>
<path d="M45.129 35.508L42.492 32.871C42.1755 32.5562 41.9983 32.1277 42 31.6815C41.9966 29.0974 39.9026 27.0034 37.3185 27H31.3185C30.0775 27.0032 28.888 27.4957 28.008 28.371L22.371 34.008C21.4901 34.884 20.9965 36.0761 21 37.3185V43.6815C20.9965 44.9239 21.4901 46.116 22.371 46.992L25.008 49.629C25.3245 49.9438 25.5017 50.3722 25.5 50.8185C25.5034 53.4026 27.5974 55.4966 30.1815 55.5H33.1815C34.4226 55.4968 35.6121 55.0041 36.492 54.129L40.629 49.992C40.9455 49.6781 41.3728 49.5013 41.8185 49.5C44.4026 49.4966 46.4966 47.4026 46.5 44.8185V38.8185C46.5036 37.5761 46.0099 36.384 45.129 35.508ZM43.5 44.8185C43.4993 45.7468 42.7468 46.4992 41.8185 46.5C40.5775 46.5032 39.388 46.9957 38.508 47.871L34.371 52.008C34.0545 52.3219 33.6272 52.4987 33.1815 52.5H30.1815C29.2532 52.4992 28.5008 51.7468 28.5 50.8185C28.5036 49.5761 28.0099 48.384 27.129 47.508L24.492 44.871C24.1755 44.5562 23.9983 44.1277 24 43.6815V37.3185C23.9985 36.8722 24.1755 36.4438 24.492 36.129L30.129 30.492C30.4455 30.1781 30.8728 30.0013 31.3185 30H37.3185C38.2468 30.0007 38.9993 30.7532 39 31.6815C38.9965 32.9239 39.4901 34.116 40.371 34.992L43.008 37.629C43.3245 37.9438 43.5017 38.3722 43.5 38.8185V44.8185Z" fill="white"/>
<path d="M59.5606 48.4395L53.5606 42.4395C52.9747 41.8538 52.025 41.8539 51.4393 42.4399C51.1582 42.7211 51.0001 43.1025 51.0001 43.5V46.5C51.0001 47.3284 50.3285 48 49.5001 48C47.0148 48 45.0001 50.0147 45.0001 52.5C45.0001 53.3284 44.3285 54 43.5001 54C41.0148 54 39.0001 56.0147 39.0001 58.5C39.0001 59.3284 38.3285 60 37.5001 60H34.5001C33.6717 60.0002 33.0003 60.6718 33.0005 61.5004C33.0005 61.8981 33.1586 62.2792 33.4396 62.5605L39.4396 68.5605C39.7209 68.8417 40.1022 69 40.5001 69H43.5001C45.9854 69 48.0001 66.9853 48.0001 64.5C48.0001 63.6716 48.6718 63 49.5001 63C51.9854 63 54.0001 60.9853 54.0001 58.5C54.0001 57.6716 54.6718 57 55.5001 57C57.9854 57 60.0001 54.9853 60.0001 52.5V49.5C60.0001 49.1021 59.8419 48.7207 59.5606 48.4395ZM57.0001 52.5C57.0001 53.3284 56.3285 54 55.5001 54C53.0148 54 51.0001 56.0147 51.0001 58.5C51.0001 59.3284 50.3285 60 49.5001 60C47.0148 60 45.0001 62.0147 45.0001 64.5C45.0001 65.3284 44.3285 66 43.5001 66H41.1211L38.0836 62.9625C40.3244 62.6694 42.0003 60.7599 42.0001 58.5C42.0001 57.6716 42.6717 57 43.5001 57C45.9854 57 48.0001 54.9853 48.0001 52.5C48.0001 51.6716 48.6718 51 49.5001 51C51.7601 51.0002 53.6696 49.3243 53.9626 47.0835L57.0001 50.121V52.5Z" fill="white"/>
<path d="M67.3186 36.696L67.0606 36.4395L59.5606 28.9395L53.3026 22.683C51.0595 20.4409 47.4237 20.4415 45.1816 22.6845C42.9395 24.9274 42.9402 28.5634 45.1831 30.8055L45.4411 31.062L52.9411 38.562L59.1991 44.8185C61.4422 47.0607 65.078 47.0599 67.3201 44.817C69.5622 42.574 69.5617 38.9382 67.3186 36.696ZM47.4871 24.636C47.9782 24.2267 48.5969 24.0017 49.2361 24H49.2421C49.9689 24.0023 50.6656 24.2907 51.1816 24.8025L54.8791 28.5H47.1361C46.166 27.336 46.3231 25.6062 47.4871 24.636ZM50.1211 31.5H57.8791L62.3791 36H54.6211L50.1211 31.5ZM65.0131 42.864C64.522 43.2733 63.9033 43.4983 63.2641 43.5H63.2581C62.531 43.4976 61.8342 43.2088 61.3186 42.696L57.6211 39H65.3641C66.3342 40.164 66.1771 41.8939 65.0131 42.864Z" fill="white"/>
<path d="M12 9V21H9V9H6V21H3V9H0V28.5C0.0073125 30.8481 1.11844 33.0561 3 34.461V76.5C3 78.9853 5.01469 81 7.5 81C9.98531 81 12 78.9853 12 76.5V34.461C13.8816 33.0561 14.9927 30.8481 15 28.5V9H12ZM9 76.5C9 77.3284 8.32838 78 7.5 78C6.67163 78 6 77.3284 6 76.5V36H9V76.5ZM12 28.5C12 30.9853 9.98531 33 7.5 33C5.01469 33 3 30.9853 3 28.5V24H12V28.5Z" fill="white"/>
</g>
<defs>
<clipPath id="clip0">
<rect width="90" height="90" fill="white"/>
</clipPath>
</defs>
</svg>
