<svg width="90" height="90" viewBox="0 0 90 90" fill="none" xmlns="http://www.w3.org/2000/svg">
<path d="M82.9688 67.5H81.5625V63.2812C81.5625 62.9083 81.4143 62.5506 81.1506 62.2869C80.8869 62.0232 80.5292 61.875 80.1562 61.875H49.2188V59.0625H74.5312C74.9042 59.0625 75.2619 58.9143 75.5256 58.6506C75.7893 58.3869 75.9375 58.0292 75.9375 57.6562V53.4375C75.9297 46.3536 73.1122 39.5622 68.1031 34.5531C63.0941 29.5441 56.3026 26.7266 49.2188 26.7188V23.9062H52.0312C52.4042 23.9062 52.7619 23.7581 53.0256 23.4944C53.2893 23.2306 53.4375 22.873 53.4375 22.5V16.875C53.4375 16.502 53.2893 16.1444 53.0256 15.8806C52.7619 15.6169 52.4042 15.4688 52.0312 15.4688H37.9688C37.5958 15.4688 37.2381 15.6169 36.9744 15.8806C36.7107 16.1444 36.5625 16.502 36.5625 16.875V22.5C36.5625 22.873 36.7107 23.2306 36.9744 23.4944C37.2381 23.7581 37.5958 23.9062 37.9688 23.9062H40.7812V26.7188C33.6974 26.7266 26.9059 29.5441 21.8969 34.5531C16.8878 39.5622 14.0703 46.3536 14.0625 53.4375V57.6562C14.0625 58.0292 14.2107 58.3869 14.4744 58.6506C14.7381 58.9143 15.0958 59.0625 15.4688 59.0625H40.7812V61.875H9.84375C9.47079 61.875 9.1131 62.0232 8.84938 62.2869C8.58566 62.5506 8.4375 62.9083 8.4375 63.2812V67.5H7.03125C5.91237 67.5 4.83931 67.9445 4.04814 68.7356C3.25697 69.5268 2.8125 70.5999 2.8125 71.7188C2.8125 72.8376 3.25697 73.9107 4.04814 74.7019C4.83931 75.493 5.91237 75.9375 7.03125 75.9375H82.9688C84.0876 75.9375 85.1607 75.493 85.9519 74.7019C86.743 73.9107 87.1875 72.8376 87.1875 71.7188C87.1875 70.5999 86.743 69.5268 85.9519 68.7356C85.1607 67.9445 84.0876 67.5 82.9688 67.5ZM39.375 21.0938V18.2812H50.625V21.0938H39.375ZM46.4062 23.9062V26.7188H43.5938V23.9062H46.4062ZM16.875 56.25V53.4375C16.8821 47.0993 19.403 41.0228 23.8848 36.541C28.3665 32.0593 34.4431 29.5383 40.7812 29.5312H49.2188C55.5569 29.5383 61.6335 32.0593 66.1152 36.541C70.597 41.0228 73.1179 47.0993 73.125 53.4375V56.25H16.875ZM46.4062 59.0625V61.875H43.5938V59.0625H46.4062ZM11.25 64.6875H78.75V67.5H11.25V64.6875ZM82.9688 73.125H7.03125C6.65829 73.125 6.3006 72.9768 6.03688 72.7131C5.77316 72.4494 5.625 72.0917 5.625 71.7188C5.625 71.3458 5.77316 70.9881 6.03688 70.7244C6.3006 70.4607 6.65829 70.3125 7.03125 70.3125H82.9688C83.3417 70.3125 83.6994 70.4607 83.9631 70.7244C84.2268 70.9881 84.375 71.3458 84.375 71.7188C84.375 72.0917 84.2268 72.4494 83.9631 72.7131C83.6994 72.9768 83.3417 73.125 82.9688 73.125Z" fill="white"/>
<path d="M19.7046 51.8175C19.6738 52.0178 19.6866 52.2225 19.7423 52.4174C19.7979 52.6123 19.8951 52.7929 20.027 52.9467C20.159 53.1006 20.3227 53.2241 20.5068 53.3088C20.691 53.3935 20.8912 53.4374 21.0939 53.4375H30.9377V50.625H22.7814C23.5442 46.3694 25.7511 42.507 29.0301 39.6891C32.3091 36.8712 36.4595 35.2703 40.7815 35.1562V32.3438C40.6 32.3438 22.6661 32.5659 19.7046 51.8175Z" fill="white"/>
<path d="M33.75 50.625H36.5625V53.4375H33.75V50.625Z" fill="white"/>
<path d="M67.514 53.2434L68.9062 53.4375L70.2983 53.6372C70.3602 53.1998 71.7046 42.8611 61.2857 35.4178L59.6516 37.7072C68.6376 44.1239 67.5632 52.875 67.514 53.2434Z" fill="white"/>
<path d="M14.0204 41.123C16.6135 30.7505 27.1083 26.6682 27.2152 26.6288L26.2238 23.9949C25.7372 24.1791 14.2496 28.6102 11.2922 40.4396L14.0204 41.123Z" fill="white"/>
<path d="M17.6527 22.6476C13.4948 25.0291 10.2779 28.7626 8.53735 33.2269L11.1502 34.2731C12.654 30.4578 15.3857 27.2521 18.9141 25.162L18.2813 23.9062L17.6527 22.6476Z" fill="white"/>
<path d="M62.7861 26.6302C62.893 26.6682 73.3766 30.7083 75.9796 41.123L78.7077 40.4396C75.7546 28.6102 64.2627 24.1791 63.7761 23.9949L62.7861 26.6302Z" fill="white"/>
<path d="M78.8498 34.2731L81.4626 33.2269C79.722 28.7626 76.5051 25.0291 72.3473 22.6476L71.0901 25.1648C74.6265 27.2429 77.36 30.4514 78.8498 34.2731Z" fill="white"/>
</svg>
