<svg width="34" height="34" viewBox="0 0 34 34" fill="none" xmlns="http://www.w3.org/2000/svg">
<path d="M16.6357 21.6674L0.760132 33.9991H33.2423L17.3643 21.6674C17.1513 21.4969 16.8486 21.4969 16.6357 21.6674Z" fill="white"/>
<path d="M17.3643 0.126843C17.1523 -0.0416299 16.8521 -0.0416299 16.64 0.126843L15.2393 1.21365H18.7608L17.3643 0.126843Z" fill="white"/>
<path d="M24.0332 21.4131C23.862 21.549 23.631 21.5826 23.4283 21.5007C23.2257 21.4189 23.0825 21.2346 23.0537 21.0179C23.0248 20.8012 23.1146 20.5858 23.2888 20.4538L33.4141 12.5913L29.1428 9.27203V13.9634C29.1428 14.2987 28.871 14.5706 28.5357 14.5706C28.2003 14.5706 27.9285 14.2988 27.9285 13.9634V3.03489C27.9285 2.6996 27.6567 2.42773 27.3214 2.42773H6.67854C6.34326 2.42773 6.07139 2.69954 6.07139 3.03489V13.9634C6.07139 14.2987 5.79959 14.5706 5.46424 14.5706C5.12895 14.5706 4.85709 14.2988 4.85709 13.9634V9.27203L0.585836 12.5913L10.6935 20.4398C10.865 20.5728 10.9525 20.7871 10.9231 21.0021C10.8937 21.2171 10.7518 21.4 10.5509 21.482C10.35 21.564 10.1206 21.5326 9.94918 21.3997L0 13.6738V33.0526L15.8932 20.7088C16.5442 20.2017 17.4565 20.2017 18.1075 20.7088L34 33.0526V13.6738L24.0332 21.4131ZM19.4547 13.6119C18.2534 14.7142 16.4659 14.884 15.0785 14.0276C13.691 13.1712 13.0417 11.4973 13.4884 9.92932C13.9353 8.36133 15.3696 7.28123 17 7.28482C17.3353 7.28482 17.6072 7.55662 17.6072 7.89197C17.6072 8.22726 17.3354 8.49912 17 8.49912C15.6587 8.49912 14.5715 9.58646 14.5715 10.9277C14.5715 12.2689 15.6588 13.3562 17 13.3562C18.3413 13.3562 19.4285 12.2689 19.4285 10.9277C19.4285 10.5924 19.7003 10.3205 20.0357 10.3205C20.371 10.3205 20.6428 10.5923 20.6428 10.9277V13.3562C20.6428 14.0268 21.1865 14.5705 21.8572 14.5705C22.5278 14.5705 23.0715 14.0268 23.0715 13.3562V10.9277C23.0715 7.57448 20.3532 4.85621 17 4.85621C13.6468 4.85621 10.9285 7.57448 10.9285 10.9277C10.9285 14.2809 13.6468 16.9991 17 16.9991C17.3353 16.9991 17.6072 17.2709 17.6072 17.6063C17.6072 17.9416 17.3354 18.2134 17 18.2134C12.9762 18.2134 9.7143 14.9515 9.7143 10.9277C9.7143 6.90391 12.9762 3.64204 17 3.64204C21.0238 3.64204 24.2857 6.90398 24.2857 10.9277V13.3563C24.2897 14.647 23.2807 15.7141 21.9918 15.7823C20.7028 15.8506 19.5869 14.8958 19.4547 13.6119Z" fill="white"/>
</svg>
