<svg width="34" height="34" viewBox="0 0 34 34" fill="none" xmlns="http://www.w3.org/2000/svg">
<path d="M17 16.6282C20.7802 16.6282 23.845 12.9059 23.845 8.31417C23.845 3.72232 22.8388 0 17 0C11.1612 0 10.1548 3.72232 10.1548 8.31417C10.1548 12.9059 13.2196 16.6282 17 16.6282Z" fill="white"/>
<path d="M4.07145 29.3226C4.07004 29.0426 4.06864 29.2437 4.07145 29.3226V29.3226Z" fill="black"/>
<path d="M29.9283 29.5414C29.9327 29.4648 29.9298 29.0097 29.9283 29.5414V29.5414Z" fill="white"/>
<path d="M29.914 28.9871C29.7872 20.9881 28.7425 18.7089 20.7483 17.2661C20.7483 17.2661 19.623 18.7 17.0002 18.7C14.3773 18.7 13.2518 17.2661 13.2518 17.2661C5.34486 18.6931 4.23666 20.9386 4.09094 28.7272C4.07899 29.3632 4.07346 29.3966 4.07132 29.3228C4.07181 29.4611 4.07239 29.717 4.07239 30.1632C4.07239 30.1632 5.97561 33.9999 17.0002 33.9999C28.0245 33.9999 29.9279 30.1632 29.9279 30.1632C29.9279 29.8765 29.9281 29.6772 29.9284 29.5416C29.9263 29.5872 29.922 29.4987 29.914 28.9871Z" fill="white"/>
</svg>
