<svg width="34" height="34" viewBox="0 0 34 34" fill="none" xmlns="http://www.w3.org/2000/svg">
<path d="M33.9838 26.8263C34.0558 27.3783 33.8876 27.8582 33.4799 28.266L28.6927 33.017C28.4768 33.257 28.1949 33.4611 27.847 33.6289C27.499 33.7969 27.1571 33.9049 26.8213 33.9528C26.7973 33.9528 26.7252 33.959 26.6051 33.971C26.4853 33.9829 26.3293 33.9891 26.1374 33.9891C25.6813 33.9891 24.9434 33.9111 23.9236 33.755C22.9038 33.599 21.6561 33.215 20.1805 32.6033C18.7045 31.9914 17.0309 31.0734 15.1593 29.8498C13.2877 28.6262 11.296 26.9463 9.18437 24.8107C7.50468 23.155 6.11294 21.5713 5.00914 20.0596C3.90534 18.5478 3.01751 17.1501 2.34563 15.8663C1.67369 14.5826 1.16979 13.4188 0.833847 12.375C0.497909 11.3312 0.26995 10.4313 0.149972 9.67546C0.0299945 8.9196 -0.0179967 8.3257 0.0059989 7.89378C0.0299945 7.46186 0.0419923 7.22191 0.0419923 7.17392C0.0899835 6.83798 0.197964 6.49604 0.365933 6.1481C0.533902 5.80017 0.737865 5.51822 0.977821 5.30226L5.76494 0.515138C6.10088 0.1792 6.48481 0.0112305 6.91673 0.0112305C7.22867 0.0112305 7.50462 0.101214 7.74458 0.281181C7.98454 0.461148 8.1885 0.683107 8.35647 0.947059L12.2078 8.25372C12.4237 8.63765 12.4837 9.05757 12.3877 9.51349C12.2917 9.9694 12.0878 10.3533 11.7758 10.6653L10.0122 12.429C9.96417 12.4769 9.92218 12.5549 9.88619 12.6629C9.85019 12.7709 9.8322 12.8609 9.8322 12.9329C9.92818 13.4368 10.1441 14.0127 10.4801 14.6605C10.768 15.2364 11.2119 15.9383 11.8118 16.7662C12.4117 17.594 13.2636 18.5478 14.3674 19.6276C15.4472 20.7315 16.407 21.5892 17.2468 22.2012C18.0865 22.8129 18.7886 23.263 19.3525 23.5509C19.9164 23.8389 20.3483 24.0128 20.6482 24.0726L21.098 24.1627C21.146 24.1627 21.2242 24.1446 21.332 24.1087C21.44 24.0726 21.518 24.0307 21.566 23.9827L23.6176 21.895C24.0498 21.5112 24.5534 21.3192 25.1294 21.3192C25.5374 21.3192 25.8612 21.3911 26.1012 21.5352H26.1371L33.0838 25.6384C33.5878 25.9506 33.8877 26.3464 33.9838 26.8263Z" fill="white"/>
</svg>
