<svg width="90" height="90" viewBox="0 0 90 90" fill="none" xmlns="http://www.w3.org/2000/svg">
<path d="M64.3289 35.4363H61.108C60.2741 35.4363 59.5979 36.1123 59.5979 36.9464C59.5979 37.7803 60.2739 38.4566 61.108 38.4566H64.3289C65.1628 38.4566 65.839 37.7805 65.839 36.9464C65.8388 36.1123 65.1628 35.4363 64.3289 35.4363Z" fill="black"/>
<path d="M64.7257 47.9117C64.1301 47.1489 63.2335 46.7114 62.2658 46.7114H27.7341C26.7664 46.7114 25.8699 47.1489 25.2742 47.9117C24.6787 48.6746 24.4716 49.6503 24.7064 50.5892L25.5119 53.8109C25.8599 55.2025 27.105 56.1746 28.5395 56.1746H61.4605C62.8951 56.1746 64.14 55.2025 64.4882 53.8107L65.2936 50.5892C65.5283 49.6501 65.3212 48.6744 64.7257 47.9117ZM62.3635 49.8569L61.5581 53.0782C61.5469 53.1234 61.5068 53.1545 61.4605 53.1545H28.5395C28.4933 53.1545 28.4529 53.123 28.4418 53.0784L27.6364 49.8569C27.6327 49.8426 27.6244 49.8092 27.6546 49.7705C27.6849 49.7319 27.7193 49.7319 27.7339 49.7319H62.2658C62.2806 49.7319 62.3148 49.7319 62.3451 49.7705C62.3753 49.8092 62.3672 49.8424 62.3635 49.8569Z" fill="black"/>
<path d="M85.2685 38.4563C87.8774 38.4563 90 36.3338 90 33.7248C90 31.1159 87.8774 28.9933 85.2685 28.9933H83.6578C81.3053 28.9933 79.3489 30.7195 78.9868 32.9714L74.9584 21.8932C74.0505 19.3959 71.6551 17.7182 68.998 17.7182H57.513L56.6629 13.4683C56.2224 11.2642 54.2709 9.66461 52.0233 9.66461H37.9763C35.7288 9.66461 33.7776 11.2642 33.3367 13.4683L32.4868 17.7182H21.0018C18.3447 17.7182 15.9493 19.396 15.0414 21.893L11.0132 32.9713C10.6513 30.7195 8.69484 28.9933 6.34236 28.9933H4.73168C2.12256 28.9933 0 31.1159 0 33.7248C0 36.3338 2.12256 38.4563 4.7315 38.4563H6.34219C7.08592 38.4563 7.78975 38.2834 8.41658 37.9763L4.96424 42.2919C3.84029 43.6967 3.22137 45.4611 3.22137 47.26V77.2147C3.22137 78.9356 4.62129 80.3355 6.34219 80.3355H11.1744C12.8953 80.3355 14.2952 78.9356 14.2952 77.2147V70.6711H75.7046V77.2147C75.7046 78.9356 77.1045 80.3355 78.8254 80.3355H83.6576C85.3785 80.3355 86.7785 78.9356 86.7785 77.2147V47.26C86.7785 45.4611 86.1595 43.6966 85.0356 42.2919L81.5832 37.9763C82.2101 38.2834 82.9139 38.4563 83.6576 38.4563H85.2685ZM6.34236 35.4363H4.73168C3.78791 35.4363 3.02027 34.6686 3.02027 33.7248C3.02027 32.7811 3.78791 32.0134 4.73168 32.0134H6.34236C7.28613 32.0134 8.05377 32.7811 8.05377 33.7248C8.05377 34.6684 7.28596 35.4363 6.34236 35.4363ZM36.2983 14.0604C36.4577 13.2632 37.1635 12.6845 37.9763 12.6845H52.0233C52.8363 12.6845 53.5421 13.2632 53.7013 14.0604L54.4329 17.7182H35.5667L36.2983 14.0604ZM11.2751 77.2147C11.2751 77.2702 11.23 77.3154 11.1744 77.3154H6.34219C6.28664 77.3154 6.24146 77.2702 6.24146 77.2147V69.7285C7.20826 70.3255 8.34627 70.6711 9.56355 70.6711H11.275V77.2147H11.2751ZM62.8188 67.651H27.1812V64.3289C27.1812 64.2733 27.2264 64.2282 27.282 64.2282H62.7182C62.7738 64.2282 62.8189 64.2733 62.8189 64.3289V67.651H62.8188ZM83.7584 77.2147C83.7584 77.2702 83.7132 77.3154 83.6576 77.3154H78.8254C78.7699 77.3154 78.7247 77.2702 78.7247 77.2147V70.6711H80.4361C81.6534 70.6711 82.7914 70.3255 83.7582 69.7285V77.2147H83.7584ZM82.6777 44.1786C83.3745 45.0499 83.7585 46.1443 83.7585 47.2602V64.3289C83.7585 66.1607 82.2683 67.651 80.4364 67.651H65.8389V64.3289C65.8389 62.608 64.4389 61.2081 62.718 61.2081H27.282C25.5611 61.2081 24.1611 62.608 24.1611 64.3289V67.651H9.56373C7.73191 67.651 6.24164 66.1607 6.24164 64.3289V47.2602C6.24164 46.1443 6.62555 45.0499 7.3227 44.1786L11.9002 38.4563H54.6645C55.4984 38.4563 56.1746 37.7803 56.1746 36.9462C56.1746 36.1123 55.4985 35.4361 54.6645 35.4361H13.3305L17.8801 22.9248C18.3556 21.6169 19.6103 20.7381 21.0022 20.7381H68.9982C70.39 20.7381 71.6446 21.617 72.1202 22.9248L76.6698 35.4361H70.7722C69.9383 35.4361 69.262 36.1121 69.262 36.9462C69.262 37.7801 69.9381 38.4563 70.7722 38.4563H78.1001L82.6777 44.1786ZM81.9462 33.7248C81.9462 32.7811 82.7139 32.0134 83.6576 32.0134H85.2683C86.2121 32.0134 86.9797 32.7811 86.9797 33.7248C86.9797 34.6686 86.2121 35.4363 85.2683 35.4363H83.6576C82.714 35.4363 81.9462 34.6684 81.9462 33.7248Z" fill="black"/>
<path d="M16.0068 57.9866C14.2859 57.9866 12.886 59.3865 12.886 61.1074C12.886 62.8283 14.2859 64.2282 16.0068 64.2282C17.7277 64.2282 19.1276 62.8283 19.1276 61.1074C19.1276 59.3865 17.7277 57.9866 16.0068 57.9866Z" fill="black"/>
<path d="M73.9934 57.9866C72.2725 57.9866 70.8726 59.3865 70.8726 61.1074C70.8726 62.8283 72.2725 64.2282 73.9934 64.2282C75.7143 64.2282 77.1142 62.8283 77.1142 61.1074C77.1142 59.3865 75.7141 57.9866 73.9934 57.9866Z" fill="black"/>
<path d="M15.2015 45.1007C12.1483 45.1007 9.66455 47.5845 9.66455 50.6376C9.66455 53.6908 12.1483 56.1746 15.2015 56.1746C18.2546 56.1746 20.7384 53.6908 20.7384 50.6376C20.7384 47.5845 18.2546 45.1007 15.2015 45.1007ZM15.2015 53.1543C13.8137 53.1543 12.6846 52.0254 12.6846 50.6375C12.6846 49.2495 13.8135 48.1206 15.2015 48.1206C16.5895 48.1206 17.7183 49.2495 17.7183 50.6375C17.7183 52.0254 16.5893 53.1543 15.2015 53.1543Z" fill="black"/>
<path d="M74.7987 45.1007C71.7455 45.1007 69.2617 47.5845 69.2617 50.6376C69.2617 53.6908 71.7455 56.1746 74.7987 56.1746C77.8518 56.1746 80.3356 53.6908 80.3356 50.6376C80.3356 47.5845 77.8518 45.1007 74.7987 45.1007ZM74.7987 53.1543C73.4109 53.1543 72.2818 52.0254 72.2818 50.6375C72.2818 49.2495 73.4107 48.1206 74.7987 48.1206C76.1864 48.1206 77.3155 49.2495 77.3155 50.6375C77.3155 52.0254 76.1866 53.1543 74.7987 53.1543Z" fill="black"/>
</svg>
