<svg width="90" height="90" viewBox="0 0 90 90" fill="none" xmlns="http://www.w3.org/2000/svg">
<g clip-path="url(#clip0)">
<path d="M89.5199 31.3446C77.6479 19.4709 61.8354 12.9326 45.0002 12.9326C28.1649 12.9326 12.3541 19.4693 0.480423 31.3446C-0.160467 31.9855 -0.160467 33.0214 0.480423 33.6623C1.12131 34.3032 2.15723 34.3032 2.79812 33.6623C14.0522 22.4066 29.0402 16.2091 45.0002 16.2091C60.9601 16.2091 75.9481 22.4066 87.2022 33.6607C87.5218 33.9803 87.9414 34.1409 88.3611 34.1409C88.7807 34.1409 89.2003 33.9803 89.5199 33.6607C90.1608 33.0214 90.1608 31.9839 89.5199 31.3446Z" fill="black"/>
<path d="M10.1149 40.9777C9.47405 41.6185 9.47405 42.6545 10.1149 43.2954C10.4346 43.615 10.8542 43.7756 11.2738 43.7756C11.6934 43.7756 12.113 43.615 12.4326 43.2954C30.389 25.3373 59.6077 25.3373 77.5658 43.2954C78.2067 43.9362 79.2426 43.9362 79.8835 43.2954C80.5244 42.6545 80.5244 41.6185 79.8835 40.9777C60.6502 21.7444 29.3515 21.7411 10.1149 40.9777Z" fill="black"/>
<path d="M45 40.1712C35.4522 40.1712 26.4863 43.8805 19.7512 50.6139C19.1103 51.2548 19.1103 52.2907 19.7512 52.9316C20.3921 53.5725 21.428 53.5725 22.0689 52.9316C28.1844 46.8178 36.3275 43.4494 45 43.4494C53.6725 43.4494 61.8155 46.8178 67.931 52.9316C68.2507 53.2513 68.6703 53.4119 69.0899 53.4119C69.5095 53.4119 69.9291 53.2513 70.2487 52.9316C70.8896 52.2907 70.8896 51.2548 70.2487 50.6139C63.5153 43.8805 54.5477 40.1712 45 40.1712Z" fill="black"/>
<path d="M45 55.5919C39.0795 55.5919 34.2622 60.4092 34.2622 66.3313C34.2622 72.2534 39.0795 77.0708 45 77.0708C50.9221 77.0708 55.7394 72.2534 55.7394 66.3313C55.7394 60.4092 50.9221 55.5919 45 55.5919ZM45 73.7909C40.8858 73.7909 37.5404 70.4439 37.5404 66.3297C37.5404 62.2155 40.8875 58.8685 45 58.8685C49.1125 58.8685 52.4612 62.2155 52.4612 66.3297C52.4612 70.4439 49.1141 73.7909 45 73.7909Z" fill="black"/>
</g>
<defs>
<clipPath id="clip0">
<rect width="90" height="90" fill="white"/>
</clipPath>
</defs>
</svg>
