<svg width="40" height="40" viewBox="0 0 40 40" fill="none" xmlns="http://www.w3.org/2000/svg">
<g clip-path="url(#clip0)">
<path d="M39.1759 10.3979C38.7147 8.68438 37.3637 7.33367 35.6505 6.87225C32.5203 6.01562 19.9996 6.01562 19.9996 6.01562C19.9996 6.01562 7.47922 6.01562 4.34904 6.8396C2.66875 7.30071 1.28478 8.68468 0.823666 10.3979C0 13.5278 0 20.0189 0 20.0189C0 20.0189 0 26.5426 0.823666 29.6398C1.28509 31.353 2.63579 32.7041 4.34935 33.1655C7.51218 34.0221 19.9999 34.0221 19.9999 34.0221C19.9999 34.0221 32.5203 34.0221 35.6505 33.1981C37.364 32.737 38.7147 31.386 39.1762 29.6728C39.9998 26.5426 39.9998 20.0518 39.9998 20.0518C39.9998 20.0518 40.0328 13.5278 39.1759 10.3979Z" fill="#FF0000"/>
<path d="M16.0131 26.0159L26.4248 20.0192L16.0131 14.0225V26.0159Z" fill="white"/>
</g>
<defs>
<clipPath id="clip0">
<rect width="40" height="40" fill="white"/>
</clipPath>
</defs>
</svg>
