<svg width="25" height="25" viewBox="0 0 25 25" fill="none" xmlns="http://www.w3.org/2000/svg">
<g clip-path="url(#clip0)">
<path d="M21.6319 0H3.36978C1.50928 0 0.000976562 1.50824 0.000976562 3.3688V21.6311C0.000976562 23.4916 1.50922 24.9999 3.36978 24.9999H12.3766L12.3919 16.0663H10.071C9.76937 16.0663 9.52456 15.8224 9.52339 15.5208L9.51226 12.6411C9.5111 12.3378 9.75665 12.0914 10.0599 12.0914H12.3766V9.30886C12.3766 6.0798 14.3488 4.32156 17.2293 4.32156H19.593C19.8954 4.32156 20.1406 4.56673 20.1406 4.86921V7.29736C20.1406 7.59972 19.8956 7.84484 19.5933 7.84502L18.1427 7.84569C16.5762 7.84569 16.2729 8.59009 16.2729 9.68253V12.0914H19.715C20.043 12.0914 20.2975 12.3778 20.2588 12.7035L19.9175 15.5832C19.8849 15.8588 19.6512 16.0664 19.3737 16.0664H16.2882L16.2729 25H21.6321C23.4926 25 25.0008 23.4918 25.0008 21.6313V3.3688C25.0007 1.50824 23.4925 0 21.6319 0Z" fill="white"/>
</g>
<defs>
<clipPath id="clip0">
<rect width="25" height="25" fill="white"/>
</clipPath>
</defs>
</svg>
