<svg width="25" height="25" viewBox="0 0 25 25" fill="none" xmlns="http://www.w3.org/2000/svg">
<g clip-path="url(#clip0)">
<path d="M14.7105 10.894C14.2149 10.2001 13.4021 9.74414 12.4901 9.74414C11.5781 9.74414 10.7653 10.2001 10.2696 10.894C9.95241 11.35 9.75415 11.9051 9.75415 12.4999C9.75415 14.0066 10.9833 15.2358 12.4901 15.2358C13.9968 15.2358 15.226 14.0066 15.226 12.4999C15.226 11.9051 15.0277 11.35 14.7105 10.894Z" fill="white"/>
<path d="M16.4354 10.9136C16.6336 11.3101 16.7526 11.9445 16.7526 12.4996C16.7526 14.839 14.8493 16.7621 12.4901 16.7621C10.1309 16.7621 8.22762 14.8589 8.22762 12.4996C8.22762 11.9247 8.34657 11.3101 8.54482 10.9136H6.14594V17.2776C6.14594 18.1102 6.87948 18.8438 7.71215 18.8438H17.2681C18.1007 18.8438 18.8343 18.1102 18.8343 17.2776V10.9136H16.4354Z" fill="white"/>
<path d="M18.1206 6.5125H15.8208V9.1493H18.4378V6.84954V6.49268L18.1206 6.5125Z" fill="white"/>
<path d="M18.7153 0.00976562H6.26487C2.81523 0.00976562 0 2.82499 0 6.27464V18.7449C0 22.1747 2.81523 24.9899 6.26487 24.9899H18.7351C22.1848 24.9899 25 22.1747 25 18.7251V6.27464C24.9802 2.82499 22.1649 0.00976562 18.7153 0.00976562ZM20.222 10.894V17.2778C20.222 18.9432 18.9334 20.2318 17.268 20.2318H7.71213C6.04679 20.2318 4.75813 18.9432 4.75813 17.2778V10.894V7.7219C4.75813 6.05655 6.04679 4.76789 7.71213 4.76789H17.268C18.9334 4.76789 20.222 6.05655 20.222 7.7219V10.894Z" fill="white"/>
</g>
<defs>
<clipPath id="clip0">
<rect width="25" height="25" fill="white"/>
</clipPath>
</defs>
</svg>
