<svg width="90" height="90" viewBox="0 0 90 90" fill="none" xmlns="http://www.w3.org/2000/svg">
<path d="M81.5625 69.0478V64.6875C81.5625 64.3145 81.4143 63.9569 81.1506 63.6931C80.8869 63.4294 80.5292 63.2812 80.1562 63.2812V54.8438C80.1563 54.6591 80.1199 54.4762 80.0492 54.3056C79.9786 54.135 79.875 53.9799 79.7444 53.8494L77.3438 51.4489V36.1798L79.6031 33.9207C79.9948 33.5289 80.3056 33.0639 80.5176 32.552C80.7296 32.0402 80.8388 31.4916 80.8388 30.9376C80.8388 30.3835 80.7297 29.8349 80.5177 29.3231C80.3056 28.8112 79.9949 28.3462 79.6031 27.9544C79.2114 27.5626 78.7463 27.2519 78.2345 27.0399C77.7226 26.8278 77.174 26.7187 76.62 26.7187C76.066 26.7187 75.5174 26.8278 75.0056 27.0398C74.4937 27.2518 74.0286 27.5626 73.6369 27.9543L61.7043 39.8869C61.3126 40.2786 61.0018 40.7437 60.7898 41.2555C60.5778 41.7674 60.4686 42.316 60.4686 42.87C60.4686 43.424 60.5777 43.9726 60.7897 44.4845C61.0017 44.9963 61.3125 45.4614 61.7042 45.8532C62.4954 46.6443 63.5685 47.0888 64.6874 47.0889C65.2414 47.0889 65.79 46.9797 66.3018 46.7677C66.8137 46.5557 67.2787 46.245 67.6705 45.8532L68.9062 44.6175V63.2812H56.0391L57.4833 54.5688C57.6332 53.6914 57.4992 52.789 57.1008 51.9929L52.0312 41.8554V32.9667L55.9543 34.438C56.894 34.7907 57.8839 34.9916 58.8867 35.0332C58.9474 35.0357 59.0077 35.0369 59.068 35.0369C60.1859 35.0354 61.2575 34.5903 62.0474 33.7993C62.8374 33.0083 63.2811 31.9361 63.2811 30.8181V23.9062C63.2811 22.7874 62.8366 21.7143 62.0454 20.9231C61.2543 20.132 60.1812 19.6875 59.0623 19.6875C57.9434 19.6875 56.8704 20.132 56.0792 20.9231C55.288 21.7143 54.8436 22.7874 54.8436 23.9062V24.4434L51.2538 22.6485V22.6496C51.0587 22.5513 50.8434 22.5001 50.625 22.5H39.375C39.1567 22.5001 38.9415 22.5513 38.7466 22.6496V22.6485L29.0515 27.4962C28.3489 27.8443 27.7579 28.3824 27.3456 29.0493C26.9333 29.7163 26.7161 30.4854 26.7188 31.2696V33.75H22.5V36.5625H26.7188V39.3736C26.7193 40.4908 27.1627 41.5622 27.9516 42.3532C28.7406 43.1442 29.8108 43.5903 30.928 43.5938C32.048 43.5938 33.1223 43.1495 33.9151 42.3583C34.7078 41.5671 35.1542 40.4936 35.1562 39.3736V34.6191L37.9688 33.2128V41.9326L34.1817 52.0312H25.3125C24.194 52.0325 23.1217 52.4774 22.3308 53.2683C21.5399 54.0592 21.095 55.1315 21.0938 56.25V60.4688C21.099 61.586 21.5452 62.656 22.3352 63.446C23.1252 64.2361 24.1952 64.6822 25.3125 64.6875C26.431 64.6862 27.5033 64.2414 28.2942 63.4505C29.0851 62.6596 29.53 61.5872 29.5312 60.4688H37.7438C38.4884 60.4677 39.2196 60.2703 39.8636 59.8965C40.5076 59.5227 41.0416 58.9856 41.4118 58.3395L45.1596 51.7753L47.8125 55.3126V63.2812C47.5942 63.2812 47.3789 63.3321 47.1836 63.4297C46.9883 63.5273 46.8185 63.6691 46.6875 63.8438L42.8906 68.9062H9.84375C7.97895 68.9062 6.19052 69.647 4.87191 70.9657C3.55329 72.2843 2.8125 74.0727 2.8125 75.9375C2.8125 77.8023 3.55329 79.5907 4.87191 80.9093C6.19052 82.228 7.97895 82.9688 9.84375 82.9688H80.1562C81.8992 82.9694 83.5802 82.3227 84.8734 81.1541C86.1665 79.9855 86.9795 78.3783 87.1546 76.6442C87.3298 74.9101 86.8547 73.1727 85.8214 71.7691C84.7881 70.3655 83.2703 69.3957 81.5625 69.0478ZM73.2665 74.5312H39.375V77.3438H73.2665C73.475 78.3639 73.9084 79.3247 74.5351 80.1562H15.4649C16.0919 79.3248 16.5256 78.364 16.7344 77.3438H28.125V74.5312H16.7344C16.5258 73.5111 16.0925 72.5503 15.4658 71.7188H74.5351C73.9084 72.5503 73.475 73.5111 73.2665 74.5312ZM65.6819 43.8643C65.5516 43.9962 65.3965 44.101 65.2256 44.1727C65.0546 44.2445 64.8712 44.2817 64.6858 44.2823C64.5004 44.2828 64.3167 44.2467 64.1453 44.1761C63.974 44.1054 63.8182 44.0015 63.6871 43.8704C63.556 43.7393 63.4522 43.5836 63.3815 43.4122C63.3108 43.2409 63.2747 43.0572 63.2752 42.8718C63.2758 42.6864 63.313 42.503 63.3847 42.332C63.4564 42.1611 63.5612 42.006 63.6931 41.8757L75.6257 29.9431C75.7557 29.8101 75.9108 29.7043 76.0821 29.6316C76.2533 29.559 76.4372 29.5211 76.6232 29.5201C76.8092 29.519 76.9936 29.5549 77.1656 29.6256C77.3376 29.6963 77.4939 29.8004 77.6255 29.9319C77.757 30.0634 77.8611 30.2197 77.9318 30.3918C78.0025 30.5638 78.0384 30.7482 78.0373 30.9342C78.0363 31.1201 77.9984 31.3041 77.9257 31.4753C77.8531 31.6466 77.7473 31.8017 77.6143 31.9317L65.6819 43.8643ZM71.7188 41.8048L74.5312 38.9923V52.0312C74.5312 52.2159 74.5676 52.3988 74.6383 52.5694C74.7089 52.74 74.8125 52.8951 74.9431 53.0256L77.3438 55.4261V63.2812H71.7188V41.8048ZM55.6211 27.9765C55.8354 28.0837 56.0737 28.1343 56.3132 28.1235C56.5526 28.1128 56.7854 28.041 56.9893 27.915C57.1932 27.7889 57.3615 27.6129 57.4782 27.4035C57.595 27.1942 57.6562 26.9585 57.6562 26.7188V23.9062C57.6562 23.5333 57.8044 23.1756 58.0681 22.9119C58.3319 22.6482 58.6895 22.5 59.0625 22.5C59.4355 22.5 59.7931 22.6482 60.0569 22.9119C60.3206 23.1756 60.4688 23.5333 60.4688 23.9062V30.8178C60.4688 31.0074 60.4304 31.195 60.356 31.3694C60.2817 31.5438 60.1728 31.7014 60.0359 31.8326C59.8991 31.9639 59.7372 32.0661 59.5598 32.1332C59.3825 32.2002 59.1934 32.2307 59.004 32.2228C58.2988 32.1938 57.6027 32.0526 56.9419 31.8046L52.0312 29.9631V26.1816L55.6211 27.9765ZM40.7812 25.3125H49.2188V40.7812H40.7812V25.3125ZM33.1211 32.4923C32.8875 32.6091 32.6911 32.7886 32.5538 33.0107C32.4165 33.2329 32.3438 33.4889 32.3438 33.75V39.3736C32.3438 39.7466 32.1956 40.1042 31.9319 40.368C31.6681 40.6317 31.3105 40.7798 30.9375 40.7798C30.5645 40.7798 30.2069 40.6317 29.9431 40.368C29.6794 40.1042 29.5312 39.7466 29.5312 39.3736V31.2701C29.5304 31.0087 29.6027 30.7524 29.7401 30.53C29.8775 30.3077 30.0744 30.1283 30.3086 30.0122L37.9688 26.1816V30.0684L33.1211 32.4923ZM26.7188 60.4688C26.7183 60.8416 26.57 61.199 26.3064 61.4627C26.0428 61.7263 25.6853 61.8746 25.3125 61.875C25.1311 61.8768 24.9513 61.8419 24.7838 61.7724C24.6162 61.7029 24.4645 61.6003 24.3376 61.4707C24.3287 61.4614 24.32 61.4531 24.3102 61.4435C24.1807 61.3166 24.0781 61.1648 24.0087 60.9973C23.9393 60.8298 23.9045 60.6501 23.9062 60.4688V56.25C23.9067 55.8772 24.055 55.5197 24.3186 55.2561C24.5822 54.9925 24.9397 54.8442 25.3125 54.8438H26.7188V60.4688ZM50.3438 54L46.125 48.375C45.9851 48.1885 45.8011 48.0397 45.5894 47.942C45.3777 47.8443 45.1451 47.8007 44.9124 47.8153C44.6797 47.8298 44.4543 47.9019 44.2565 48.0252C44.0586 48.1485 43.8945 48.319 43.7788 48.5214L38.9697 56.9443C38.8474 57.1616 38.6693 57.3422 38.4537 57.4674C38.2382 57.5925 37.993 57.6578 37.7438 57.6562H29.5312V54.8438H35.1562C35.4425 54.8438 35.722 54.7564 35.9573 54.5933C36.1926 54.4303 36.3725 54.1993 36.473 53.9313L40.3495 43.5938H49.7559L54.5845 53.2508C54.7169 53.5156 54.7601 53.8162 54.7075 54.1076L53.1874 63.2812H50.625V54.8438C50.625 54.5395 50.5263 54.2434 50.3438 54ZM48.5156 66.0938H78.75V68.9062H46.4062L48.5156 66.0938ZM5.625 75.9375C5.625 75.1031 5.87243 74.2875 6.33599 73.5937C6.79955 72.8999 7.45843 72.3592 8.2293 72.0399C9.00018 71.7206 9.84843 71.637 10.6668 71.7998C11.4851 71.9626 12.2369 72.3644 12.8269 72.9544C13.4169 73.5444 13.8187 74.2961 13.9814 75.1145C14.1442 75.9328 14.0607 76.7811 13.7414 77.5519C13.4221 78.3228 12.8813 78.9817 12.1876 79.4453C11.4938 79.9088 10.6781 80.1562 9.84375 80.1562C8.72527 80.1549 7.65297 79.7101 6.86208 78.9192C6.07119 78.1283 5.6263 77.056 5.625 75.9375ZM80.1562 80.1562C79.3219 80.1562 78.5062 79.9088 77.8124 79.4453C77.1187 78.9817 76.5779 78.3228 76.2586 77.5519C75.9393 76.7811 75.8558 75.9328 76.0186 75.1145C76.1813 74.2961 76.5831 73.5444 77.1731 72.9544C77.7631 72.3644 78.5149 71.9626 79.3332 71.7998C80.1516 71.637 80.9998 71.7206 81.7707 72.0399C82.5416 72.3592 83.2004 72.8999 83.664 73.5937C84.1276 74.2875 84.375 75.1031 84.375 75.9375C84.3737 77.056 83.9288 78.1283 83.1379 78.9192C82.347 79.7101 81.2747 80.1549 80.1562 80.1562Z" fill="white"/>
<path d="M30.9375 74.5312H36.5625V77.3438H30.9375V74.5312Z" fill="white"/>
<path d="M15.4688 63.2812H18.2812V66.0938H15.4688V63.2812Z" fill="white"/>
<path d="M9.84375 63.2812H12.6562V66.0938H9.84375V63.2812Z" fill="white"/>
<path d="M4.21875 63.2812H7.03125V66.0938H4.21875V63.2812Z" fill="white"/>
<path d="M16.875 33.75H19.6875V36.5625H16.875V33.75Z" fill="white"/>
<path d="M11.25 33.75H14.0625V36.5625H11.25V33.75Z" fill="white"/>
<path d="M26.7188 46.4062H29.5312V49.2188H26.7188V46.4062Z" fill="white"/>
<path d="M18.2812 46.4062H23.9062V49.2188H18.2812V46.4062Z" fill="white"/>
<path d="M45 19.6875C46.3907 19.6875 47.7501 19.2751 48.9064 18.5025C50.0626 17.7299 50.9639 16.6318 51.496 15.347C52.0282 14.0622 52.1675 12.6485 51.8962 11.2845C51.6249 9.9206 50.9552 8.66775 49.9719 7.68441C48.9885 6.70107 47.7357 6.03141 46.3717 5.76011C45.0078 5.4888 43.5941 5.62805 42.3093 6.16023C41.0245 6.6924 39.9263 7.59362 39.1537 8.7499C38.3811 9.90618 37.9688 11.2656 37.9688 12.6563C37.9708 14.5204 38.7123 16.3076 40.0305 17.6258C41.3486 18.9439 43.1358 19.6854 45 19.6875ZM45 8.4375C45.8344 8.4375 46.65 8.68493 47.3438 9.14849C48.0376 9.61205 48.5783 10.2709 48.8976 11.0418C49.2169 11.8127 49.3005 12.6609 49.1377 13.4793C48.9749 14.2976 48.5731 15.0494 47.9831 15.6394C47.3931 16.2294 46.6414 16.6312 45.823 16.7939C45.0047 16.9567 44.1564 16.8732 43.3856 16.5539C42.6147 16.2346 41.9558 15.6938 41.4922 15.0001C41.0287 14.3063 40.7813 13.4906 40.7813 12.6563C40.7826 11.5378 41.2274 10.4655 42.0183 9.67458C42.8092 8.8837 43.8815 8.43881 45 8.4375Z" fill="white"/>
</svg>
