<svg width="25" height="25" viewBox="0 0 25 25" fill="none" xmlns="http://www.w3.org/2000/svg">
<path d="M22.5 0H2.5C1.125 0 0 1.125 0 2.5V22.5C0 23.875 1.125 25 2.5 25H22.5C23.875 25 25 23.875 25 22.5V2.5C25 1.125 23.875 0 22.5 0ZM19.625 9.125C19.5 14.875 15.875 18.875 10.375 19.125C8.125 19.25 6.5 18.5 5 17.625C6.625 17.875 8.75 17.25 9.875 16.25C8.25 16.125 7.25 15.25 6.75 13.875C7.25 14 7.75 13.875 8.125 13.875C6.625 13.375 5.625 12.5 5.5 10.5C5.875 10.75 6.375 10.875 6.875 10.875C5.75 10.25 5 7.875 5.875 6.375C7.5 8.125 9.5 9.625 12.75 9.875C11.875 6.375 16.625 4.5 18.5 6.875C19.375 6.75 20 6.375 20.625 6.125C20.375 7 19.875 7.5 19.25 8C19.875 7.875 20.5 7.75 21 7.5C20.875 8.125 20.25 8.625 19.625 9.125Z" fill="white"/>
</svg>
