<svg width="25" height="25" viewBox="0 0 25 25" fill="none" xmlns="http://www.w3.org/2000/svg">
<path d="M24.0256 5.21345C23.1231 4.14071 21.457 3.70312 18.2751 3.70312H6.72468C3.46992 3.70312 1.77556 4.16893 0.876532 5.31103C0 6.42458 0 8.0653 0 10.3361V14.6643C0 19.0635 1.04 21.2972 6.72468 21.2972H18.2752C21.0345 21.2972 22.5635 20.911 23.5527 19.9643C24.5672 18.9935 25 17.4084 25 14.6643V10.3361C25 7.94135 24.9322 6.29095 24.0256 5.21345ZM16.0501 13.0977L10.8051 15.8389C10.6878 15.9002 10.5596 15.9306 10.4315 15.9306C10.2865 15.9306 10.1419 15.8916 10.0137 15.814C9.77242 15.6678 9.62508 15.4063 9.62508 15.1242V9.65933C9.62508 9.37772 9.77202 9.11643 10.0128 8.97014C10.2537 8.82385 10.5533 8.81385 10.8032 8.94369L16.0482 11.6672C16.3151 11.8058 16.4827 12.0813 16.4831 12.3818C16.4834 12.6826 16.3165 12.9585 16.0501 13.0977Z" fill="white"/>
</svg>
